<svg version="1" xmlns="http://www.w3.org/2000/svg" width="1066.667" height="1066.667" viewBox="0 0 800.000000 800.000000"><path d="M365 171c-34.7 2.8-73.3 17.8-101 39.3-30.6 23.8-53.9 55.5-65.9 89.9-8.5 24.3-11.6 46-10.6 73.3.7 20.2 2.2 29.8 7 46.4 6.4 22.3 17.4 45.7 27.9 59.1 6.1 7.8 7 9.8 5.5 11.6-1.4 1.7-22.5 16-28.6 19.4-2.4 1.3-4.3 2.7-4.3 3.1 0 .4-1.9 1.8-4.2 3.2-2.4 1.4-5.3 3.4-6.6 4.5-1.3 1.1-3.3 2.7-4.5 3.6-1.9 1.3-2 1.7-.7 2.5 1.2.8.8 1.1-1.6 1.1-1.7 0-3.7.7-4.4 1.5-.7.8-2.2 1.5-3.5 1.5-1.2 0-3.4 1.1-4.9 2.5-1.5 1.4-3.2 2.5-3.9 2.5-.7 0-2.5 1.4-4.1 3-1.6 1.7-3.3 3-3.8 3-1.8 0-.6 3.6 1.8 5.3 2.5 1.8 2.6 1.8 3.9 0 1.3-1.7 1.4-1.7 1.5-.1 0 1-.4 1.8-1 1.8-2 0-.9 2.2 2.6 5.6 2 1.9 4.3 3.4 5.1 3.4.8 0 1.3.6 1.1 1.3-.4 1.7 6.8 8.5 10.2 9.8 1.4.5 3.4 2.3 4.5 3.9 1.1 1.7 2.5 3 3.2 3 .7 0 1.7.9 2.3 2 .6 1.1 1.7 2 2.5 2s2.5 1 3.7 2.2c6.9 6.9 35.4 22.2 55.8 30.1 32.8 12.6 61.1 17.7 99.1 17.7 25.1 0 43-2.2 69.5-8.6 62.7-15 122.9-57.8 156.1-110.9 15.6-25.1 26.8-52.5 32.9-80.6 2.5-11.4 2.7-14.7 3.1-42.1.4-24.3.2-31.6-1.1-40-2-12.2-3.4-17.8-4.5-17.8-.5 0-1.6 2.1-2.6 4.7-3.3 8.9-11.8 24.5-17.5 32.2-7 9.4-21 22.7-31 29.3-31.4 20.7-70.7 26-107.2 14.4-8.9-2.9-18.6-7.5-19.2-9.3-.9-2.2 2.4-17.3 5.1-23.8 9.9-24.1 20.7-35.7 51.9-56 100.5-65.3 165.9-108.7 165.7-110-.3-2-13.7-4.7-24.3-4.8-11.2-.1-18 1-29.8 5-5.9 2-7.9 2.3-10.3 1.4-1.6-.6-8.5-1.6-15.3-2.2-34.8-3.5-65.4 7-89.2 30.6-8.8 8.7-15.7 18.3-23 32.1-8.4 15.8-15.4 25.4-26.9 36.9-15.2 15.2-33 26.6-50.6 32.5l-6.3 2.2-1.8-2.2c-1-1.2-3.6-7.9-5.7-14.9-7-22.4-7.4-41.7-1.5-65.5 8.3-33.6 28.1-59.1 61.2-79 4.5-2.8 8.2-5.3 8.2-5.7 0-2.4-26.5-6.7-45.3-7.3-7.8-.2-18.9-.1-24.7.4zM176 533c0 .5-.4 1-1 1-.5 0-1-.5-1-1 0-.6.5-1 1-1 .6 0 1 .4 1 1zm-18 11c-2 1.3-4 1.3-4 0 0-.6 1.2-1 2.8-1 2.1 0 2.4.2 1.2 1zm9.5 9c-.3.5-1.7 1-3.1 1-1.3 0-2.4-.5-2.4-1 0-.6 1.4-1 3.1-1 1.7 0 2.8.4 2.4 1zm8.5 9.7c0 1.8-.3 2.3-.8 1.5-.5-.6-1.7-1.9-2.8-2.7-1.8-1.4-1.8-1.4.9-1.5 2.3 0 2.7.4 2.7 2.7zm8 6.3c0 .5-.2 1-.4 1-.3 0-.8-.5-1.1-1-.3-.6-.1-1 .4-1 .6 0 1.1.4 1.1 1z"/></svg>